<svg width="101" height="100" viewBox="0 0 101 100" fill="none" xmlns="http://www.w3.org/2000/svg">
<path d="M50.1245 42.3917C57.4828 30.7917 63.937 25 69.4912 25C77.8245 25 83.087 34.2208 86.1578 46.7375C89.0912 58.6917 88.2412 75 77.8245 75C73.1828 75 66.7912 68.4792 60.5412 59.7833C56.5642 54.3037 53.0785 48.4839 50.1245 42.3917Z" stroke="black" stroke-width="17.2851" stroke-linecap="round" stroke-linejoin="round"/>
<path d="M50.1249 42.3917C42.7666 30.7917 36.3124 25 30.7582 25C22.4249 25 17.1624 34.2208 14.0916 46.7375C11.1582 58.6917 12.0082 75 22.4249 75C27.0666 75 33.4582 68.4792 39.7082 59.7833C43.8749 53.9875 47.3457 48.1875 50.1249 42.3917Z" stroke="black" stroke-width="17.2851" stroke-linecap="round" stroke-linejoin="round"/>
</svg>
