<svg width="35" height="41" viewBox="0 0 35 41" fill="none" xmlns="http://www.w3.org/2000/svg">
<g clip-path="url(#clip0_106_80)">
<mask id="mask0_106_80" style="mask-type:alpha" maskUnits="userSpaceOnUse" x="0" y="0" width="35" height="41">
<rect width="35" height="41" fill="#D9D9D9"/>
</mask>
<g mask="url(#mask0_106_80)">
<path d="M2.9165 13.8536V6.01178H10.2082V9.1485H5.83317V13.8536H2.9165ZM29.1665 13.8536V9.1485H24.7915V6.01178H32.0832V13.8536H29.1665ZM2.9165 40.5157V32.6739H5.83317V37.379H10.2082V40.5157H2.9165ZM24.7915 40.5157V37.379H29.1665V32.6739H32.0832V40.5157H24.7915ZM10.2082 32.6739H24.7915V13.8536H10.2082V32.6739ZM10.2082 35.8106C9.40609 35.8106 8.71946 35.5035 8.14827 34.8892C7.57709 34.2749 7.2915 33.5365 7.2915 32.6739V13.8536C7.2915 12.991 7.57709 12.2525 8.14827 11.6383C8.71946 11.024 9.40609 10.7169 10.2082 10.7169H24.7915C25.5936 10.7169 26.2802 11.024 26.8514 11.6383C27.4226 12.2525 27.7082 12.991 27.7082 13.8536V32.6739C27.7082 33.5365 27.4226 34.2749 26.8514 34.8892C26.2802 35.5035 25.5936 35.8106 24.7915 35.8106H10.2082ZM13.1248 20.127H21.8748V16.9903H13.1248V20.127ZM13.1248 24.8321H21.8748V21.6954H13.1248V24.8321ZM13.1248 29.5372H21.8748V26.4005H13.1248V29.5372Z" fill="white"/>
</g>
</g>
<defs>
<clipPath id="clip0_106_80">
<rect width="35" height="41" fill="white"/>
</clipPath>
</defs>
</svg>
