<svg width="110" height="31" viewBox="0 0 110 31" fill="none" xmlns="http://www.w3.org/2000/svg">
<g clip-path="url(#clip0_99_406)">
<path d="M29.9428 4.22887C28.8394 4.82857 27.6581 5.24115 26.4131 5.42827C27.6834 4.48339 28.6547 2.9888 29.1178 1.2083C27.9263 2.06833 26.6081 2.69127 25.2066 3.04342C24.0891 1.56045 22.4916 0.627197 20.7188 0.627197C17.3203 0.627197 14.5659 4.04059 14.5659 8.24777C14.5659 8.85328 14.625 9.43439 14.7272 9.98527C9.615 9.68891 5.08313 6.64393 2.05219 2.04392C1.51969 3.16429 1.21687 4.46596 1.21687 5.88269C1.21687 8.53368 2.30531 10.8581 3.95062 12.2248C2.94469 12.1888 1.99781 11.8436 1.16812 11.2753V11.3671C1.16812 15.0641 3.28688 18.1463 6.09938 18.8482C5.58656 19.0168 5.03906 19.1144 4.48313 19.1144C4.08844 19.1144 3.71156 19.0667 3.33563 18.9807C4.12687 22.0071 6.39187 24.2107 9.09188 24.2769C6.99281 26.3166 4.33219 27.5322 1.46531 27.5322C0.976875 27.5322 0.489375 27.5032 0 27.43C2.73469 29.5917 5.9625 30.8561 9.44906 30.8561C20.7619 30.8561 26.9438 19.2399 26.9438 9.17986C26.9438 8.85909 26.9438 8.53251 26.9241 8.20477C28.1306 7.13903 29.175 5.78855 30 4.25793L29.9428 4.22887Z" fill="#3F4857"/>
<path d="M69.9987 15.8348C69.9987 7.43514 63.2835 0.627197 54.9994 0.627197C46.7153 0.627197 40 7.43514 40 15.8348C40 23.4234 45.4852 29.7143 52.6555 30.8549V20.2298H48.8479V15.8335H52.6555V12.4841C52.6555 8.67203 54.8956 6.56704 58.3208 6.56704C59.9621 6.56704 61.6784 6.86359 61.6784 6.86359V10.6059H59.7883C57.9257 10.6059 57.3445 11.7782 57.3445 12.9809V15.8348H61.5046L60.8396 20.2311H57.3445V30.8561C64.5148 29.7156 70 23.4247 70 15.8348H69.9987Z" fill="#3F4857"/>
<path d="M109.975 14.8502C109.465 6.08408 101.561 -0.671941 92.4576 0.839476C86.1884 1.88235 81.1641 7.00603 80.1892 13.3237C79.6193 16.9813 80.3692 20.4425 82.004 23.2991L80.6692 28.3018C80.3692 29.4354 81.404 30.4632 82.5139 30.1458L87.4033 28.7855C89.623 30.1004 92.2176 30.8561 94.9923 30.8561C103.451 30.8561 110.47 23.3444 109.975 14.8502ZM102.326 21.3644C102.191 21.6365 102.026 21.8934 101.816 22.1353C101.441 22.5433 101.036 22.8456 100.587 23.027C100.137 23.2235 99.6417 23.3142 99.1167 23.3142C98.3518 23.3142 97.527 23.133 96.6721 22.7551C95.8022 22.3772 94.9473 21.8783 94.0924 21.2586C93.2225 20.6238 92.4126 19.9135 91.6327 19.1427C90.8528 18.3567 90.1629 17.5254 89.533 16.6639C88.918 15.8024 88.4231 14.9409 88.0632 14.0794C87.7032 13.2179 87.5233 12.3867 87.5233 11.6008C87.5233 11.0869 87.6132 10.5881 87.7932 10.1347C87.9732 9.66614 88.2582 9.24295 88.6631 8.8651C89.1431 8.38145 89.668 8.15473 90.2229 8.15473C90.4329 8.15473 90.6428 8.20006 90.8378 8.29075C91.0328 8.38143 91.2128 8.51746 91.3478 8.71394L93.0875 11.1927C93.2225 11.3891 93.3275 11.5554 93.3875 11.7216C93.4625 11.8879 93.4925 12.039 93.4925 12.1902C93.4925 12.3716 93.4325 12.553 93.3275 12.7343C93.2225 12.9156 93.0875 13.097 92.9076 13.2784L92.3376 13.8829C92.2476 13.9736 92.2176 14.0643 92.2176 14.1852C92.2176 14.2457 92.2326 14.3061 92.2476 14.3666C92.2776 14.427 92.2926 14.4724 92.3076 14.5177C92.4426 14.7747 92.6826 15.0921 93.0125 15.485C93.3575 15.878 93.7175 16.2861 94.1074 16.6791C94.5123 17.0871 94.9023 17.4499 95.3072 17.7975C95.6972 18.13 96.0271 18.3567 96.2821 18.4928C96.3271 18.5079 96.3721 18.5381 96.4171 18.5532C96.4771 18.5834 96.5371 18.5834 96.6121 18.5834C96.7471 18.5834 96.837 18.5381 96.927 18.4474L97.497 17.8731C97.6919 17.6766 97.8719 17.5406 98.0369 17.4499C98.2169 17.3441 98.3818 17.2836 98.5768 17.2836C98.7268 17.2836 98.8768 17.3138 99.0418 17.3894C99.2067 17.465 99.3867 17.5557 99.5667 17.6917L102.056 19.4752C102.251 19.6112 102.386 19.7775 102.476 19.9588C102.551 20.1553 102.596 20.3367 102.596 20.5483C102.506 20.8052 102.446 21.0924 102.326 21.3644Z" fill="#3F4857"/>
</g>
<defs>
<clipPath id="clip0_99_406">
<rect width="110" height="30.2289" fill="white" transform="translate(0 0.627197)"/>
</clipPath>
</defs>
</svg>
