<svg width="16" height="16" viewBox="0 0 16 16" fill="none" xmlns="http://www.w3.org/2000/svg">
<g opacity="0.2">
<path fill-rule="evenodd" clip-rule="evenodd" d="M12.6049 8.60846C12.7231 8.63726 12.8437 8.66665 12.9601 8.66665C13.9002 8.83524 14.5899 9.64503 14.6067 10.6V12.6C14.6094 13.1723 14.3667 13.7184 13.9401 14.1C13.573 14.427 13.0984 14.6074 12.6067 14.6067H12.3534C6.60529 13.8969 2.0707 9.37883 1.34008 3.63332C1.2606 3.05738 1.43567 2.47536 1.8197 2.03884C2.20373 1.60232 2.75871 1.35453 3.34008 1.35999H5.34008C6.32444 1.34567 7.17283 2.04983 7.34008 3.01999C7.36008 3.17332 7.38675 3.32665 7.42008 3.47332C7.48737 3.76985 7.57423 4.0616 7.68008 4.34665C7.91309 4.98715 7.62555 5.70027 7.01341 5.99999L6.73341 6.18665C7.09463 6.83598 7.54326 7.43266 8.06675 7.95999C8.59407 8.48347 9.19075 8.9321 9.84008 9.29332L9.98675 8.99332C10.2865 8.38119 10.9996 8.09364 11.6401 8.32665C11.9245 8.43431 12.2164 8.5212 12.5134 8.58665C12.5437 8.59353 12.5742 8.60097 12.6049 8.60846ZM13.0667 13.1667C13.2106 13.0403 13.2932 12.8581 13.2934 12.6667L13.2801 10.5867C13.2872 10.2669 13.0662 9.98708 12.7534 9.91999C12.5712 9.89332 12.3912 9.85999 12.2134 9.81999C11.8565 9.73898 11.5047 9.63657 11.1601 9.51332L10.7467 10.4467C10.6716 10.6084 10.5347 10.7332 10.3667 10.7933C10.2044 10.86 10.0224 10.86 9.86008 10.7933C7.80491 9.83385 6.15288 8.18182 5.19341 6.12665C5.11874 5.96581 5.11122 5.78185 5.17253 5.61545C5.23383 5.44905 5.3589 5.31394 5.52008 5.23999L6.45341 4.80665C6.32625 4.47011 6.22376 4.12475 6.14675 3.77332C6.10675 3.59554 6.07341 3.41554 6.04675 3.23332C5.97965 2.92056 5.69988 2.69954 5.38008 2.70665H3.38008C3.1886 2.7069 3.00646 2.78946 2.88008 2.93332C2.75219 3.08513 2.69197 3.28265 2.71341 3.47999C3.34756 8.61903 7.3841 12.6748 12.5201 13.3333C12.7176 13.3572 12.9161 13.2967 13.0667 13.1667Z" fill="#212121"/>
</g>
</svg>
