<svg width="16" height="16" viewBox="0 0 16 16" fill="none" xmlns="http://www.w3.org/2000/svg">
<g opacity="0.2">
<path fill-rule="evenodd" clip-rule="evenodd" d="M2.22266 6.63889C2.22266 3.44791 4.80946 0.861115 8.00043 0.861115C11.1914 0.861115 13.7782 3.44791 13.7782 6.63889C13.7782 10.5389 8.72266 14.9444 8.46988 15.1322C8.19961 15.3634 7.80126 15.3634 7.53099 15.1322L7.52979 15.1312C7.29629 14.9288 2.22266 10.532 2.22266 6.63889ZM3.6671 6.63889C3.6671 9.05112 6.4621 12.1639 8.00043 13.6083C9.53877 12.1711 12.3338 9.05112 12.3338 6.63889C12.3338 4.24566 10.3937 2.30556 8.00043 2.30556C5.6072 2.30556 3.6671 4.24566 3.6671 6.63889ZM8.00043 3.75C6.40494 3.75 5.11155 5.0434 5.11155 6.63889C5.11155 8.23438 6.40494 9.52778 8.00043 9.52778C9.59592 9.52778 10.8893 8.23438 10.8893 6.63889C10.8893 5.0434 9.59592 3.75 8.00043 3.75ZM6.55599 6.63889C6.55599 7.43664 7.20269 8.08334 8.00043 8.08334C8.79818 8.08334 9.44488 7.43664 9.44488 6.63889C9.44488 5.84115 8.79818 5.19445 8.00043 5.19445C7.20269 5.19445 6.55599 5.84115 6.55599 6.63889Z" fill="#212121"/>
</g>
</svg>
