<svg width="16" height="16" viewBox="0 0 16 16" fill="none" xmlns="http://www.w3.org/2000/svg">
<g opacity="0.2">
<path fill-rule="evenodd" clip-rule="evenodd" d="M12.6663 2.66666H3.33301C2.22844 2.66666 1.33301 3.56209 1.33301 4.66666V11.3333C1.33301 12.4379 2.22844 13.3333 3.33301 13.3333H12.6663C13.7709 13.3333 14.6663 12.4379 14.6663 11.3333V4.66666C14.6663 3.56209 13.7709 2.66666 12.6663 2.66666ZM12.393 3.99999L8.47301 7.91999C8.34783 8.0462 8.17743 8.11719 7.99967 8.11719C7.82192 8.11719 7.65152 8.0462 7.52634 7.91999L3.60634 3.99999H12.393ZM12.6663 12C13.0345 12 13.333 11.7015 13.333 11.3333V4.93999L9.41301 8.85999C8.63216 9.63987 7.36719 9.63987 6.58634 8.85999L2.66634 4.93999V11.3333C2.66634 11.7015 2.96482 12 3.33301 12H12.6663Z" fill="#212121"/>
</g>
</svg>
