<svg width="197" height="8" viewBox="0 0 197 8" fill="none" xmlns="http://www.w3.org/2000/svg">
<path d="M0.32845 4C0.32845 5.47276 1.52236 6.66667 2.99512 6.66667C4.46788 6.66667 5.66178 5.47276 5.66178 4C5.66178 2.52724 4.46788 1.33333 2.99512 1.33333C1.52236 1.33333 0.32845 2.52724 0.32845 4ZM196.359 4.35355C196.554 4.15829 196.554 3.84171 196.359 3.64645L193.177 0.464466C192.982 0.269204 192.665 0.269204 192.47 0.464466C192.275 0.659728 192.275 0.976311 192.47 1.17157L195.298 4L192.47 6.82843C192.275 7.02369 192.275 7.34027 192.47 7.53553C192.665 7.7308 192.982 7.7308 193.177 7.53553L196.359 4.35355ZM2.99512 4.5H4.00038V3.5H2.99512V4.5ZM6.0109 4.5H8.02143V3.5H6.0109V4.5ZM10.032 4.5H12.0425V3.5H10.032V4.5ZM14.053 4.5H16.0635V3.5H14.053V4.5ZM18.0741 4.5H20.0846V3.5H18.0741V4.5ZM22.0951 4.5H24.1056V3.5H22.0951V4.5ZM26.1161 4.5H28.1267V3.5H26.1161V4.5ZM30.1372 4.5H32.1477V3.5H30.1372V4.5ZM34.1583 4.5H36.1688V3.5H34.1583V4.5ZM38.1793 4.5H40.1898V3.5H38.1793V4.5ZM42.2003 4.5H44.2109V3.5H42.2003V4.5ZM46.2214 4.5H48.2319V3.5H46.2214V4.5ZM50.2424 4.5H52.253V3.5H50.2424V4.5ZM54.2635 4.5H56.274V3.5H54.2635V4.5ZM58.2845 4.5H60.2951V3.5H58.2845V4.5ZM62.3056 4.5H64.3161V3.5H62.3056V4.5ZM66.3266 4.5H68.3372V3.5H66.3266V4.5ZM70.3477 4.5H72.3582V3.5H70.3477V4.5ZM74.3687 4.5H76.3792V3.5H74.3687V4.5ZM78.3898 4.5H80.4003V3.5H78.3898V4.5ZM82.4108 4.5H84.4213V3.5H82.4108V4.5ZM86.4319 4.5H88.4424V3.5H86.4319V4.5ZM90.4529 4.5H92.4634V3.5H90.4529V4.5ZM94.4739 4.5H96.4845V3.5H94.4739V4.5ZM98.495 4.5H100.506V3.5H98.495V4.5ZM102.516 4.5H104.527V3.5H102.516V4.5ZM106.537 4.5H108.548V3.5H106.537V4.5ZM110.558 4.5H112.569V3.5H110.558V4.5ZM114.579 4.5H116.59V3.5H114.579V4.5ZM118.6 4.5H120.611V3.5H118.6V4.5ZM122.621 4.5H124.632V3.5H122.621V4.5ZM126.642 4.5H128.653V3.5H126.642V4.5ZM130.663 4.5H132.674V3.5H130.663V4.5ZM134.684 4.5H136.695V3.5H134.684V4.5ZM138.705 4.5H140.716V3.5H138.705V4.5ZM142.726 4.5H144.737V3.5H142.726V4.5ZM146.748 4.5H148.758V3.5H146.748V4.5ZM150.769 4.5H152.779V3.5H150.769V4.5ZM154.79 4.5H156.8V3.5H154.79V4.5ZM158.811 4.5H160.821V3.5H158.811V4.5ZM162.832 4.5H164.842V3.5H162.832V4.5ZM166.853 4.5H168.863V3.5H166.853V4.5ZM170.874 4.5H172.884V3.5H170.874V4.5ZM174.895 4.5H176.905V3.5H174.895V4.5ZM178.916 4.5H180.927V3.5H178.916V4.5ZM182.937 4.5H184.948V3.5H182.937V4.5ZM186.958 4.5H188.969V3.5H186.958V4.5ZM190.979 4.5H192.99V3.5H190.979V4.5ZM195 4.5H196.005V3.5H195V4.5Z" fill="white"/>
</svg>
