<svg width="197" height="9" viewBox="0 0 197 9" fill="none" xmlns="http://www.w3.org/2000/svg">
<path d="M0.333333 4.5C0.333333 5.97276 1.52724 7.16667 3 7.16667C4.47276 7.16667 5.66667 5.97276 5.66667 4.5C5.66667 3.02724 4.47276 1.83333 3 1.83333C1.52724 1.83333 0.333333 3.02724 0.333333 4.5ZM196.364 4.85355C196.559 4.65829 196.559 4.34171 196.364 4.14645L193.182 0.964466C192.987 0.769204 192.67 0.769204 192.475 0.964466C192.28 1.15973 192.28 1.47631 192.475 1.67157L195.303 4.5L192.475 7.32843C192.28 7.52369 192.28 7.84027 192.475 8.03553C192.67 8.2308 192.987 8.2308 193.182 8.03553L196.364 4.85355ZM3 5H4.00526V4H3V5ZM6.01579 5H8.02631V4H6.01579V5ZM10.0368 5H12.0474V4H10.0368V5ZM14.0579 5H16.0684V4H14.0579V5ZM18.0789 5H20.0895V4H18.0789V5ZM22.1 5H24.1105V4H22.1V5ZM26.121 5H28.1316V4H26.121V5ZM30.1421 5H32.1526V4H30.1421V5ZM34.1631 5H36.1737V4H34.1631V5ZM38.1842 5H40.1947V4H38.1842V5ZM42.2052 5H44.2158V4H42.2052V5ZM46.2263 5H48.2368V4H46.2263V5ZM50.2473 5H52.2579V4H50.2473V5ZM54.2684 5H56.2789V4H54.2684V5ZM58.2894 5H60.2999V4H58.2894V5ZM62.3105 5H64.321V4H62.3105V5ZM66.3315 5H68.342V4H66.3315V5ZM70.3526 5H72.3631V4H70.3526V5ZM74.3736 5H76.3841V4H74.3736V5ZM78.3947 5H80.4052V4H78.3947V5ZM82.4157 5H84.4262V4H82.4157V5ZM86.4367 5H88.4473V4H86.4367V5ZM90.4578 5H92.4683V4H90.4578V5ZM94.4788 5H96.4893V4H94.4788V5ZM98.4999 5H100.51V4H98.4999V5ZM102.521 5H104.531V4H102.521V5ZM106.542 5H108.552V4H106.542V5ZM110.563 5H112.574V4H110.563V5ZM114.584 5H116.595V4H114.584V5ZM118.605 5H120.616V4H118.605V5ZM122.626 5H124.637V4H122.626V5ZM126.647 5H128.658V4H126.647V5ZM130.668 5H132.679V4H130.668V5ZM134.689 5H136.7V4H134.689V5ZM138.71 5H140.721V4H138.71V5ZM142.731 5H144.742V4H142.731V5ZM146.752 5H148.763V4H146.752V5ZM150.773 5H152.784V4H150.773V5ZM154.795 5H156.805V4H154.795V5ZM158.816 5H160.826V4H158.816V5ZM162.837 5H164.847V4H162.837V5ZM166.858 5H168.868V4H166.858V5ZM170.879 5H172.889V4H170.879V5ZM174.9 5H176.91V4H174.9V5ZM178.921 5H180.931V4H178.921V5ZM182.942 5H184.952V4H182.942V5ZM186.963 5H188.974V4H186.963V5ZM190.984 5H192.995V4H190.984V5ZM195.005 5H196.01V4H195.005V5Z" fill="white"/>
</svg>
