<svg width="37" height="4" viewBox="0 0 37 4" fill="none" xmlns="http://www.w3.org/2000/svg">
<path fill-rule="evenodd" clip-rule="evenodd" d="M2.5 4C3.60457 4 4.5 3.10457 4.5 2C4.5 0.89543 3.60457 0 2.5 0C1.39543 0 0.5 0.89543 0.5 2C0.5 3.10457 1.39543 4 2.5 4Z" fill="#212121"/>
<path fill-rule="evenodd" clip-rule="evenodd" d="M10.5 4C11.6046 4 12.5 3.10457 12.5 2C12.5 0.89543 11.6046 0 10.5 0C9.39543 0 8.5 0.89543 8.5 2C8.5 3.10457 9.39543 4 10.5 4Z" fill="#212121"/>
<path fill-rule="evenodd" clip-rule="evenodd" d="M18.5 4C19.6046 4 20.5 3.10457 20.5 2C20.5 0.89543 19.6046 0 18.5 0C17.3954 0 16.5 0.89543 16.5 2C16.5 3.10457 17.3954 4 18.5 4Z" fill="#212121"/>
<path opacity="0.3" fill-rule="evenodd" clip-rule="evenodd" d="M26.5 4C27.6046 4 28.5 3.10457 28.5 2C28.5 0.89543 27.6046 0 26.5 0C25.3954 0 24.5 0.89543 24.5 2C24.5 3.10457 25.3954 4 26.5 4Z" fill="#212121"/>
<path opacity="0.3" fill-rule="evenodd" clip-rule="evenodd" d="M34.5 4C35.6046 4 36.5 3.10457 36.5 2C36.5 0.89543 35.6046 0 34.5 0C33.3954 0 32.5 0.89543 32.5 2C32.5 3.10457 33.3954 4 34.5 4Z" fill="#212121"/>
</svg>
