<svg width="124" height="100" viewBox="0 0 124 100" fill="none" xmlns="http://www.w3.org/2000/svg">
<path d="M110.469 24.9218C110.547 26.0155 110.547 27.1094 110.547 28.2031C110.547 61.5623 85.1564 100 38.75 100C24.4531 100 11.1719 95.8592 0 88.672C2.03132 88.9062 3.98425 88.9844 6.09373 88.9844C17.8904 88.9844 28.75 85.0001 37.4219 78.2032C26.3281 77.9688 17.0312 70.7032 13.828 60.7031C15.3906 60.9373 16.953 61.0936 18.5938 61.0936C20.8594 61.0936 23.1252 60.781 25.2344 60.2344C13.6719 57.8905 4.9998 47.7343 4.9998 35.4687V35.1563C8.35905 37.0313 12.2656 38.2032 16.4059 38.3593C9.60905 33.8279 5.15611 26.0936 5.15611 17.3436C5.15611 12.6562 6.40588 8.35929 8.59351 4.60926C21.0154 19.9217 39.6874 29.9216 60.6247 31.0155C60.2342 29.1405 59.9997 27.1876 59.9997 25.2344C59.9997 11.328 71.2498 0 85.2341 0C92.4997 0 99.0621 3.04687 103.672 7.96875C109.375 6.87505 114.843 4.76557 119.687 1.87501C117.812 7.73452 113.828 12.6564 108.594 15.7812C113.672 15.2346 118.594 13.828 123.125 11.8751C119.688 16.8749 115.391 21.3278 110.469 24.9218Z" fill="black"/>
</svg>
