<svg width="101" height="100" viewBox="0 0 101 100" fill="none" xmlns="http://www.w3.org/2000/svg">
<path d="M100.125 50.3097C100.125 22.5167 77.7276 0 50.1245 0C22.5026 0 0.124512 22.5167 0.124512 50.3097C0.124512 75.4143 18.4026 96.2299 42.312 100V64.8555H29.6151V50.3129H42.312V39.2227C42.312 26.617 49.7651 19.6554 61.1901 19.6554C66.662 19.6554 72.3901 20.6364 72.3901 20.6364V33.0158H66.0745C59.8745 33.0158 57.937 36.899 57.937 40.8766V50.3097H71.8026L69.5745 64.8524H57.937V99.9969C81.8276 96.2268 100.125 75.4111 100.125 50.3066V50.3097Z" fill="black"/>
</svg>
