<svg width="100" height="100" viewBox="0 0 100 100" fill="none" xmlns="http://www.w3.org/2000/svg">
<path d="M99.6939 45.35C99.4388 42.8 97.2449 40.9 94.6429 40.9H56.1224C53.3163 40.9 51.0204 43.15 51.0204 45.9V54.45C51.0204 57.2 53.3163 59.45 56.1224 59.45H79.1326C78.5714 64.05 75.5102 71 68.7245 75.65C64.3877 78.6 58.6224 80.65 51.0204 80.65C50.6632 80.65 50.3571 80.65 50 80.6C36.9898 80.2 25.9694 71.65 21.9898 59.9C20.9184 56.75 20.3061 53.45 20.3061 50C20.3061 46.55 20.9184 43.2 21.9388 40.1C22.2449 39.2 22.6021 38.3 23.0102 37.4001C27.7041 27.0501 37.9592 19.75 50 19.4C50.3061 19.35 50.6632 19.35 51.0204 19.35C58.3163 19.35 63.7755 21.7 67.602 24.2999C69.5918 25.65 72.2449 25.35 73.9796 23.7L81.0714 16.9C83.3163 14.75 83.1122 11.0999 80.5612 9.29995C72.449 3.44995 62.551 0 51.0204 0C50.6632 0 50.3571 5.00213e-05 50 0.05005C30.4592 0.40005 13.6735 11.5 5.45919 27.55C1.9898 34.35 0 41.95 0 50C0 58.05 1.9898 65.65 5.45919 72.45H5.51021C13.7245 88.5 30.5102 99.6 50 99.95C50.3571 100 50.6632 100 51.0204 100C64.7959 100 76.3775 95.55 84.7959 87.9C94.4388 79.15 100 66.35 100 51.1C100 48.95 99.898 47.1 99.6939 45.35Z" fill="black"/>
</svg>
